HIERARCHY
ROOT Hips
{
  OFFSET 105.34 56.4589 360.273
  CHANNELS 6 Xposition Yposition Zposition Zrotation Xrotation Yrotation
  JOINT RightUpLeg
  {
    OFFSET -8.9458 -8.66707 0.101652
    CHANNELS 3 Zrotation Xrotation Yrotation
    JOINT RightLeg
    {
      OFFSET 0 -44.4227 1.3727
      CHANNELS 3 Zrotation Xrotation Yrotation
      JOINT RightFoot
      {
        OFFSET 0.253549 -42.0924 -1.46059
        CHANNELS 3 Zrotation Xrotation Yrotation
        JOINT RightToes
        {
          OFFSET 0.04 -4.41509 8.4991
          CHANNELS 3 Zrotation Xrotation Yrotation
          End Site
          {
            OFFSET -0.08 -0.137448 9.77979
          }
        }
      }
    }
  }
  JOINT Spine
  {
    OFFSET 0 11.8905 0
    CHANNELS 3 Zrotation Xrotation Yrotation
    JOINT Spine1
    {
      OFFSET 0 25.6574 0.127663
      CHANNELS 3 Zrotation Xrotation Yrotation
      JOINT HEad
      {
        OFFSET 0 8.73416 0.011341
        CHANNELS 3 Zrotation Xrotation Yrotation
        End Site
        {
          OFFSET -0.29 12.7742 2.51395
        }
      }
      JOINT LeftShoulder1
      {
        OFFSET 8.99 -0.362252 -0.22
        CHANNELS 3 Zrotation Xrotation Yrotation
        JOINT LeftArm
        {
          OFFSET 10.2827 -0.00338 0.322123
          CHANNELS 3 Zrotation Xrotation Yrotation
          JOINT LeftForeArm
          {
            OFFSET 32.7669 0.099144 -1.42434
            CHANNELS 3 Zrotation Xrotation Yrotation
            JOINT LeftHand
            {
              OFFSET 27.5643 0.085362 1.02216
              CHANNELS 3 Zrotation Xrotation Yrotation
              End Site
              {
                OFFSET 16.7443 -0.6 1.50291
              }
            }
          }
        }
      }
      JOINT RightShoulder
      {
        OFFSET -8.99 -0.362252 -0.22
        CHANNELS 3 Zrotation Xrotation Yrotation
        JOINT RightArm
        {
          OFFSET -10.2827 -0.00338 0.322123
          CHANNELS 3 Zrotation Xrotation Yrotation
          JOINT RightForeArm
          {
            OFFSET -32.8971 0.099144 -1.42434
            CHANNELS 3 Zrotation Xrotation Yrotation
            JOINT RightHand
            {
              OFFSET -27.4921 0.085362 1.02216
              CHANNELS 3 Zrotation Xrotation Yrotation
              End Site
              {
                OFFSET -16.6312 -0.6 1.50291
              }
            }
          }
        }
      }
    }
  }
  JOINT LeftUpLeg
  {
    OFFSET 8.9458 -8.66707 0.101652
    CHANNELS 3 Zrotation Xrotation Yrotation
    JOINT LeftLeg
    {
      OFFSET 0 -44.4227 1.3727
      CHANNELS 3 Zrotation Xrotation Yrotation
      JOINT LeftFoot
      {
        OFFSET -0.253549 -42.0924 -1.46059
        CHANNELS 3 Zrotation Xrotation Yrotation
        JOINT LeftToes
        {
          OFFSET -0.04 -4.41509 8.4991
          CHANNELS 3 Zrotation Xrotation Yrotation
          End Site
          {
            OFFSET 0.08 -0.047448 9.77979
          }
        }
      }
    }
  }
}
MOTION
Frames:	22
Frame Time:	0.0166667
-28.092	56.5047	43.794	44.8079	34.7005	143.754	-45.9006	9.97535	-6.39833	-10.0549	46.2765	4.98628	10.1002	-1.74778	-1.85918	4.62E-02	5.34E-04	0.662642	-2.85483	1.89341	1.62331	-5.76679	3.70558	3.3416	-10.1913	63.5629	35.3086	0.00E+00	0.00E+00	-3.18E-15	-80.2994	45.0276	-7.21792	-11.9601	10.0495	-47.324	-25.6266	17.3478	19.9253	0.00E+00	0.00E+00	-3.18E-15	66.3883	47.6293	-37.3371	-2.16916	19.7948	86.9965	-0.429808	5.55551	0.576487	9.03E+00	-4.08E+01	-5.14715	166.251	80.7187	158.622	-8.32526	-7.397	-7.75625	1.43E-14	3.26E-14	3.18E-15
-28.056	56.4665	43.84	44.7572	34.7202	143.698	-45.9872	9.85553	-6.43902	-10.1079	46.3433	5.04184	10.1116	-1.76036	-1.88275	4.62E-02	5.34E-04	6.63E-01	-2.8282	1.91301	1.61103	-5.71375	3.74616	3.31722	-9.83852	63.6233	34.8468	-3.53E-31	6.36E-15	3.18E-15	-80.361	45.1377	-7.19789	-11.9118	10.0086	-47.3126	-25.6663	17.408	19.9301	-3.53E-31	6.36E-15	3.18E-15	66.5182	47.659	-36.8861	-3.02006	19.0595	86.8564	0.718502	5.6126	0.660337	9.14E+00	-4.09E+01	-5.11E+00	167.083	80.7256	157.72	-8.32816	-7.39597	-7.76472	1.91E-14	3.10E-14	6.36E-15
-28.017	56.428	43.883	44.6842	34.7447	143.661	-46.0743	9.76296	-6.51454	-10.196	46.36	5.14403	10.1333	-1.7575	-1.90934	4.62E-02	5.34E-04	6.63E-01	-2.79924	1.93576	1.59593	-5.65607	3.79323	3.28727	-9.47602	63.7097	34.3556	-7.06E-31	6.36E-15	6.36E-15	-80.4139	45.2335	-7.20469	-11.8838	9.95397	-47.294	-25.7087	17.4618	19.937	-7.06E-31	6.36E-15	6.36E-15	66.6434	47.6128	-36.4774	-3.76889	18.2881	86.7084	2.16585	5.60768	0.627946	9.23E+00	-4.09E+01	-5.0802	167.962	80.7359	156.771	-8.33308	-7.40589	-7.76233	1.75E-14	3.26E-14	3.18E-15
-27.974	56.3935	43.921	44.5995	34.7733	143.64	-46.165	9.70397	-6.63315	-10.3254	46.3272	5.32351	10.1666	-1.73572	-1.93505	4.62E-02	5.34E-04	6.63E-01	-2.76632	1.96019	1.57978	-5.59046	3.8438	3.25514	-9.10183	63.831	33.85	-1.59E-15	6.36E-15	6.36E-15	-80.4601	45.3478	-7.2309	-11.8565	9.89275	-47.2796	-25.744	17.5133	19.9425	-1.59E-15	6.36E-15	6.36E-15	66.7179	47.4529	-36.0534	-4.34456	17.5761	86.5144	3.79984	5.61138	0.427575	9.29E+00	-4.10E+01	-5.08E+00	168.789	80.7519	155.877	-8.35111	-7.41376	-7.80676	1.91E-14	3.10E-14	9.54E-15
-27.941	56.3627	43.95	44.4962	34.8075	143.627	-46.272	9.66585	-6.78956	-10.4864	46.2504	5.57447	10.19	-1.69493	-1.95776	4.62E-02	5.34E-04	6.63E-01	-2.73533	1.98328	1.56129	-5.52859	3.89177	3.21831	-8.72267	63.9798	33.3595	-4.77E-15	6.36E-15	3.18E-15	-80.4863	45.479	-7.26681	-11.828	9.82026	-47.2856	-25.7636	17.5508	19.9405	-4.77E-15	6.36E-15	3.18E-15	66.7472	47.2078	-35.5808	-4.79999	16.9427	86.2565	5.57377	5.59429	0.137429	9.28E+00	-4.10E+01	-5.09E+00	169.447	80.7649	155.165	-8.3652	-7.44119	-7.75062	1.27E-14	3.42E-14	-3.18E-15
-27.919	56.3352	43.973	44.3594	34.8319	143.587	-46.414	9.59523	-6.99789	-10.6929	46.1426	5.92854	10.1819	-1.62013	-1.96172	4.62E-02	5.34E-04	6.63E-01	-2.71165	1.99828	1.54907	-5.48127	3.92301	3.19383	-8.34646	64.1425	32.8987	-4.77E-15	-3.18E-15	0.00E+00	-80.489	45.5914	-7.30962	-11.7951	9.7591	-47.3078	-25.7673	17.5588	19.9216	-4.77E-15	-3.18E-15	0.00E+00	66.7072	46.9805	-35.0417	-5.13396	16.359	85.9555	7.40667	5.60208	-0.150771	9.25E+00	-41.0884	-5.07082	169.986	80.7868	154.608	-8.396	-7.47079	-7.69845	1.75E-14	3.26E-14	9.54E-15
-27.912	56.3068	43.994	44.2436	34.8423	143.499	-46.6269	9.46985	-7.11123	-10.7689	46.0959	6.21825	10.1284	-1.54894	-1.92877	4.62E-02	5.34E-04	6.63E-01	-2.68335	2.00912	1.53921	-5.42464	3.94597	3.17368	-7.98163	64.3425	32.4847	-1.59E-14	3.18E-15	-3.18E-15	-80.4737	45.6822	-7.35393	-11.7681	9.71067	-47.3361	-25.7629	17.5533	19.8797	-1.59E-14	3.18E-15	-3.18E-15	66.7063	46.797	-34.4786	-5.43918	15.8267	85.5898	9.12851	5.58761	-0.377291	9.22E+00	-41.1197	-5.02E+00	170.327	80.8139	154.297	-8.42925	-7.478	-7.65831	1.59E-14	3.26E-14	9.54E-15
-27.92	56.2761	44.016	44.1264	34.8298	143.352	-46.8792	9.21169	-7.07712	-10.7059	46.1808	6.33448	10.0023	-1.49452	-1.86762	4.62E-02	5.34E-04	0.662642	-2.65518	2.01288	1.53651	-5.36823	3.95442	3.16648	-7.65991	64.5527	32.1509	1.11E-14	9.54E-15	6.36E-15	-80.4285	45.7407	-7.41227	-11.7659	9.66367	-47.3799	-25.7414	17.529	19.8372	1.11E-14	9.54E-15	6.36E-15	66.7203	46.7015	-33.8459	-5.68299	15.3485	85.1455	10.597	5.63952	-0.569403	9.20E+00	-41.149	-4.91E+00	170.55	80.8521	154.142	-8.47746	-7.46054	-7.68061	1.75E-14	3.02E-14	6.36E-15
-27.949	56.2405	44.044	43.9927	34.7903	143.136	-47.1243	8.78475	-6.89618	-10.5497	46.4283	6.24983	9.78813	-1.49989	-1.79485	4.62E-02	5.34E-04	6.63E-01	-2.62904	2.01158	1.53678	-5.31595	3.94483	3.17353	-7.4007	64.7553	31.9141	-4.77E-15	-3.18E-15	0.00E+00	-80.3467	45.7316	-7.48899	-11.8204	9.60872	-47.4195	-25.6853	17.4874	19.7805	-4.77E-15	-3.18E-15	0.00E+00	66.6995	46.7353	-33.0766	-5.93144	14.9391	84.6209	11.8512	5.81203	-0.830749	9.20E+00	-41.1813	-4.73994	170.629	80.9082	154.176	-8.53551	-7.44803	-7.67737	1.27E-14	3.10E-14	6.36E-15
-27.998	56.2001	44.083	43.8441	34.8114	142.906	-47.4039	8.29454	-6.62831	-10.3819	46.8149	6.07936	9.47774	-1.60967	-1.74276	4.62E-02	5.34E-04	6.63E-01	-2.61843	2.00805	1.53629	-5.29458	3.94581	3.1656	-7.18829	64.9665	31.7492	1.59E-15	3.18E-15	6.36E-15	-80.2764	45.6671	-7.5377	-11.9405	9.52294	-47.44	-25.5858	17.4656	19.7149	1.59E-15	3.18E-15	6.36E-15	66.568	46.8859	-32.1187	-6.18626	14.6809	83.9838	13.0008	5.83622	-0.978545	9.11E+00	-4.12E+01	-4.58E+00	170.584	80.9832	154.349	-8.59427	-7.45456	-7.57909	1.91E-14	2.94E-14	1.27E-14
-28.057	56.1632	44.137	43.7344	34.8325	142.629	-47.7219	7.71857	-6.31466	-10.1555	47.3557	5.88642	9.1147	-1.80718	-1.68417	4.62E-02	5.34E-04	6.63E-01	-2.59965	2.00284	1.53305	-5.25672	3.93607	3.15823	-6.93253	65.193	31.5413	-4.77E-15	-3.18E-15	0.00E+00	-80.2592	45.5994	-7.53248	-12.0766	9.43236	-47.442	-25.4241	17.4395	19.6015	-4.77E-15	-3.18E-15	0.00E+00	66.3391	47.1224	-30.9818	-6.32233	14.5704	83.1969	13.928	5.88792	-1.13176	9.05E+00	-4.11E+01	-4.42E+00	170.516	81.0706	154.544	-8.65599	-7.43181	-7.56049	1.91E-14	3.18E-14	3.18E-15
-28.125	56.1341	44.196	43.6176	34.8516	142.389	-48.1599	7.14777	-6.18034	-9.95302	47.9508	5.79131	8.71861	-2.05696	-1.57298	4.62E-02	5.34E-04	0.662642	-2.58299	1.99882	1.5186	-5.22277	3.92918	3.12855	-6.54022	65.4034	31.1815	-6.36E-15	0.00E+00	-6.36E-15	-80.257	45.5862	-7.53067	-12.2149	9.29271	-47.4244	-25.2433	17.4376	19.4546	-6.36E-15	0.00E+00	-6.36E-15	65.9772	47.3796	-29.6469	-6.42727	14.6024	82.3053	14.8746	6.01159	-1.44008	8.95E+00	-4.11E+01	-4.30801	170.515	81.1734	154.68	-8.71451	-7.40014	-7.54309	1.75E-14	3.50E-14	3.18E-15
-28.194	56.1073	44.263	43.5289	34.8723	142.142	-48.6897	6.51707	-5.87095	-9.44521	48.6794	5.27493	8.30951	-2.27004	-1.4196	4.62E-02	5.34E-04	6.63E-01	-2.56494	1.99255	1.50031	-5.18584	3.918	3.09105	-6.00617	65.6122	30.6591	6.36E-15	3.18E-15	0.00E+00	-80.2787	45.62	-7.50664	-12.3103	9.16138	-47.3966	-25.0812	17.4344	19.2834	6.36E-15	3.18E-15	0.00E+00	65.6213	47.6625	-28.2371	-6.63927	14.772	81.2879	15.5411	6.13512	-1.72097	8.87E+00	-4.10E+01	-4.23E+00	170.624	81.2852	154.709	-8.77413	-7.36516	-7.54472	1.75E-14	3.18E-14	-3.18E-15
-28.265	56.0837	44.339	43.474	34.8582	141.847	-49.1997	5.79505	-5.30788	-8.59184	49.5416	4.22309	7.91069	-2.51749	-1.29195	4.62E-02	5.34E-04	6.63E-01	-2.541	1.9824	1.48268	-5.13701	3.89918	3.05449	-5.38214	65.7906	30.0326	-3.18E-15	-9.54E-15	-3.18E-15	-80.282	45.6594	-7.49416	-12.3403	9.08508	-47.3723	-24.9603	17.4121	19.1125	-3.18E-15	-9.54E-15	-3.18E-15	65.2826	47.9575	-26.75	-6.93797	15.0053	80.1589	16.0761	6.25681	-1.96936	8.88931	-4.10E+01	-4.12598	170.914	81.4023	154.539	-8.84088	-7.33281	-7.55544	1.43E-14	3.34E-14	6.36E-15
-28.326	56.056	44.425	43.3839	34.7884	141.505	-49.7522	4.89211	-4.50162	-7.35202	50.5379	2.65458	7.56342	-2.77226	-1.1856	4.62E-02	5.34E-04	0.662642	-2.51946	1.95836	1.47584	-5.09295	3.85202	3.03896	-4.73845	65.9152	29.3668	0.00E+00	-3.18E-15	0.00E+00	-80.2494	45.666	-7.51861	-12.3101	9.09184	-47.357	-24.9058	17.3843	18.964	0.00E+00	-3.18E-15	0.00E+00	64.9687	48.2743	-25.1927	-7.21964	15.294	78.9219	16.3518	6.35111	-2.22651	9.01E+00	-4.10E+01	-3.94E+00	171.381	81.5184	154.17	-8.91622	-7.34539	-7.50135	1.91E-14	3.34E-14	0.00E+00
-28.37	56.0138	44.53	43.3253	34.7198	141.068	-50.2916	3.87258	-3.7373	-6.13357	51.5853	1.11171	7.23112	-3.06187	-1.14278	4.62E-02	5.34E-04	6.63E-01	-2.49462	1.93508	1.4735	-5.04303	3.80599	3.04406	-4.19109	66.0197	28.7867	-9.54E-15	0.00E+00	0.00E+00	-80.184	45.5782	-7.53998	-12.2748	9.19366	-47.3525	-24.9269	17.3595	18.86	-9.54E-15	0.00E+00	0.00E+00	64.6789	48.6065	-23.6073	-7.37133	15.6146	77.5663	16.3701	6.43237	-2.42189	9.25E+00	-4.10E+01	-3.65501	172.016	81.6164	153.595	-8.99749	-7.35241	-7.50885	1.27E-14	3.26E-14	3.18E-15
-28.396	55.9648	44.65	43.2897	34.7002	140.634	-50.8819	2.93288	-3.30507	-5.21331	52.5671	0.053083	6.94976	-3.42372	-1.16513	4.62E-02	5.34E-04	6.63E-01	-2.4717	1.9176	1.47335	-4.99636	3.77174	3.03772	-3.67883	66.1208	28.2191	-1.59E-15	0.00E+00	-6.36E-15	-80.152	45.4482	-7.5159	-12.2574	9.32537	-47.3311	-24.9876	17.3411	18.8163	-1.59E-15	0.00E+00	-6.36E-15	64.434	48.9037	-22.1114	-7.40263	15.9899	76.1793	16.2564	6.5378	-2.67094	9.52E+00	-4.09E+01	-3.36551	172.741	81.701	152.904	-9.06664	-7.37421	-7.43433	1.59E-14	3.18E-14	3.18E-15
-28.4	55.9115	44.779	43.2967	34.6913	140.197	-51.4376	2.07557	-3.27754	-4.72014	53.4681	-0.502691	6.77277	-3.85713	-1.22285	4.62E-02	5.34E-04	6.63E-01	-2.4405	1.90463	1.47492	-4.93327	3.74682	3.03206	-3.16307	66.2157	27.6305	-1.59E-15	3.18E-15	3.18E-15	-80.1346	45.2794	-7.46542	-12.2943	9.44709	-47.2903	-25.0426	17.312	18.8224	-1.59E-15	3.18E-15	3.18E-15	64.4095	49.2421	-20.8284	-7.55966	16.3144	74.7887	15.9896	6.7567	-2.94101	9.84E+00	-4.09E+01	-3.09164	173.706	81.7638	151.957	-9.14377	-7.37213	-7.39027	1.59E-14	3.58E-14	0.00E+00
-28.384	55.8577	44.916	43.3113	34.6383	139.718	-51.8961	1.18003	-3.73072	-4.75928	54.3171	-0.677403	6.99467	-4.50039	-1.29754	4.62E-02	5.34E-04	6.63E-01	-2.40509	1.88639	1.47974	-4.86202	3.71112	3.03975	-2.69453	66.2722	27.0944	-1.59E-15	0.00E+00	-3.18E-15	-80.1096	45.0711	-7.4085	-12.4077	9.45948	-47.2433	-25.0448	17.2906	18.8631	-1.59E-15	0.00E+00	-3.18E-15	64.5121	49.695	-19.6359	-7.9791	16.62	73.4213	15.5181	7.0004	-3.06923	1.03E+01	-4.09E+01	-2.77E+00	175.082	81.815	150.585	-9.24315	-7.32958	-7.45234	2.23E-14	3.26E-14	3.18E-15
-28.368	55.7996	45.067	43.3522	34.506	139.08	-52.2633	0.0935675	-4.75858	-5.16644	55.0669	-0.583824	7.25259	-5.0954	-1.30126	4.62E-02	5.34E-04	6.63E-01	-2.3678	1.86308	1.50575	-4.7875	3.66444	3.08956	-2.41936	66.2715	26.8177	3.18E-15	0.00E+00	3.18E-15	-80.0359	44.7379	-7.33971	-12.6349	9.33326	-47.2129	-24.9508	17.2835	18.9089	3.18E-15	0.00E+00	3.18E-15	64.6934	50.2523	-18.4864	-8.75888	16.9738	72.1914	14.9492	7.15559	-3.05266	10.9978	-4.09E+01	-2.27954	176.913	81.8518	148.736	-9.33759	-7.28476	-7.4561	2.07E-14	3.34E-14	3.18E-15
-28.359	55.7315	45.235	43.3682	34.2454	138.294	-52.6103	-1.28672	-6.29218	-5.84804	55.7549	0.117499	7.37743	-5.49885	-1.38221	4.62E-02	5.34E-04	6.63E-01	-2.32654	1.82375	1.5472	-4.70503	3.58526	3.1695	-2.4426	66.1845	26.9219	3.18E-15	0.00E+00	3.18E-15	-79.9077	44.2109	-7.26334	-13.0184	9.0743	-47.2087	-24.7305	17.2868	18.9546	3.18E-15	0.00E+00	3.18E-15	65.0823	50.944	-17.4691	-10.0112	17.382	71.1173	14.3461	7.31247	-3.06221	1.20E+01	-4.10E+01	-1.58E+00	179.227	81.8694	146.372	-9.43202	-7.22735	-7.4388	1.91E-14	3.34E-14	9.54E-15
-28.349	55.6384	45.415	43.3197	33.8545	137.5	-52.9545	-2.86421	-8.13231	-6.59214	56.3966	0.992528	8.07721	-6.09079	-1.59031	4.62E-02	5.34E-04	6.63E-01	-2.27362	1.77211	1.57918	-4.59849	3.48224	3.22965	-2.65273	65.977	27.2468	-1.27E-14	-3.18E-15	-6.36E-15	-79.7753	43.511	-7.17852	-13.5272	8.77096	-47.2246	-24.3674	17.2807	18.9582	-1.27E-14	-3.18E-15	-6.36E-15	65.459	51.6608	-16.5035	-11.6796	17.8983	70.3146	13.8291	7.44674	-3.15437	1.31E+01	-4.13E+01	-8.93E-01	-177.731	81.8553	143.237	-9.54266	-7.16	-7.44849	1.75E-14	3.10E-14	9.54E-15
